Coordinates
version=1
nRows=11
nColumns=36
inDegrees=yes

Units are S.I. units (second, meters, Newtons, ...)
If the header above contains a line with 'inDegrees', this indicates whether rotational values are in degrees (yes) or radians (no).

endheader
time	pelvis_tilt	pelvis_list	pelvis_rotation	pelvis_tx	pelvis_ty	pelvis_tz	hip_flexion_r	hip_adduction_r	hip_rotation_r	knee_angle_r	knee_angle_r_beta	ankle_angle_r	subtalar_angle_r	mtp_angle_r	hip_flexion_l	hip_adduction_l	hip_rotation_l	knee_angle_l	knee_angle_l_beta	ankle_angle_l	subtalar_angle_l	mtp_angle_l	lumbar_extension	lumbar_bending	lumbar_rotation	arm_flex_r	arm_add_r	arm_rot_r	elbow_flex_r	pro_sup_r	arm_flex_l	arm_add_l	arm_rot_l	elbow_flex_l	pro_sup_l
      3.48333330	    -22.84226440	      1.88189794	     -1.90856516	      0.15711910	      1.14557806	      0.04050423	     33.46521297	      1.88171878	      8.80538490	     43.44136280	      0.75819481	     26.96799641	    -23.42598042	     -7.49999987	     34.28032540	      1.38195697	      2.25793775	     44.27168000	      0.77268658	     27.35567962	    -22.94275679	     -7.49999987	     -1.97642033	      0.14461277	     -3.21646765	     59.66132164	     -7.38905717	     18.44448391	     81.01658479	     86.30990056	     74.17766223	    -22.68719433	     29.95981831	     75.68808103	     78.96265961
      3.50000000	    -20.94819571	      1.90952232	     -1.91816973	      0.18275390	      1.16304933	      0.04320639	     27.67218580	      1.13109698	      8.26906416	     39.13879846	      0.68310090	     22.96633402	    -22.22151311	     -7.49999987	     29.26705120	      1.10833925	      1.99174874	     41.14174518	      0.71805891	     23.84830993	    -22.36193947	     -7.49999987	     -1.58374790	      0.06608481	     -3.53927460	     58.73402140	    -10.25380121	     20.29633593	     82.97189054	     84.63831637	     73.46135828	    -24.66242850	     30.20461145	     76.98547552	     77.98320742
      3.51666670	    -19.42649541	      2.06776002	     -2.08858555	      0.20423355	      1.17561564	      0.04458668	     23.97426704	      0.39850155	      7.58684980	     37.67890361	      0.65762093	     19.28721125	    -21.38281301	     -7.49999987	     26.05567098	      0.76699547	      1.23886152	     39.98353463	      0.69784433	     21.07480942	    -22.06721916	     -7.49999987	     -0.73768968	     -0.12466518	     -3.11258861	     57.38894554	    -14.11075933	     21.71424674	     85.77614273	     85.31972754	     72.44390582	    -26.78369436	     30.88479244	     78.36964802	     79.14115308
      3.53333330	    -17.90368948	      2.17374026	     -2.50751291	      0.22403658	      1.19092652	      0.04608439	     21.74946823	     -0.14470931	      6.78667035	     38.20385997	      0.66678314	     14.04874372	    -20.23010118	     -7.49999987	     23.53346906	      0.39042050	      0.24787458	     40.02258863	      0.69852595	     16.60728855	    -22.09309897	     -7.49999987	      0.09083008	     -0.15334819	     -2.61669106	     54.99883849	    -17.34990346	     22.71256129	     87.85957411	     84.14049105	     69.95909914	    -29.06631664	     30.56567202	     80.04440879	     78.27910183
      3.55000000	    -16.75549553	      2.11113532	     -3.14717585	      0.24749478	      1.20210424	      0.04713341	     21.23176672	     -0.37014295	      6.02994767	     40.54986534	      0.70772866	      9.84146155	    -19.30020156	     -7.49999987	     22.01488359	     -0.08062358	     -0.85363310	     41.49748538	      0.72426775	     11.25533187	    -21.84696652	     -7.49999987	      1.26626128	      0.13438874	     -1.81803088	     51.63899802	    -21.06921391	     22.82092920	     91.19450943	     83.90939857	     65.69476828	    -31.43070418	     28.73342796	     83.14157074	     78.21224396
      3.56666670	    -15.62726729	      1.97335532	     -3.95239076	      0.26195384	      1.21690125	      0.04709865	     21.93291423	     -0.35597191	      5.40054863	     44.18687624	      0.77120648	      5.77516447	    -19.44836167	     -7.49999987	     21.37457069	     -0.57996486	     -1.92053397	     43.20292825	      0.75403334	      5.68602298	    -22.33991572	     -7.49999987	      1.84589350	      0.50101192	     -1.16310595	     48.09844182	    -24.49701153	     22.99069122	     93.23234004	     81.58509405	     61.00215876	    -33.60141057	     27.13583316	     85.00886748	     76.48149461
      3.58333330	    -14.95291670	      1.66276698	     -4.50309503	      0.27712968	      1.23054927	      0.04800785	     23.93859605	     -0.08696421	      4.39801440	     48.49052319	      0.84631929	      3.98051294	    -19.90480014	     -7.49999987	     21.56126676	     -1.16580611	     -2.56653763	     44.86908518	      0.78311327	      2.71919155	    -21.82972411	     -7.49999987	      2.15158323	      0.95719576	     -0.87604254	     43.51527444	    -27.84871207	     22.51090022	     96.33124928	     81.59724417	     55.73679220	    -35.83953703	     24.18408413	     86.59326898	     76.70939330
      3.60000000	    -14.20471661	      1.54526174	     -5.06016760	      0.29067538	      1.23919706	      0.04697879	     26.35132352	      0.01820927	      3.60501356	     53.57762245	      0.93510592	      4.26096891	    -20.41023270	     -7.49999987	     22.26302866	     -1.50535453	     -3.13173150	     46.54979143	      0.81244713	      2.08456248	    -21.12107125	     -7.49999987	      1.90509433	      0.96732749	     -0.64356611	     39.43142875	    -31.11561912	     22.86333235	     98.08778897	     81.21914452	     51.25014243	    -38.15591367	     22.55367214	     86.61073087	     76.57917017
      3.61666670	    -13.51726006	      1.20620421	     -5.17169467	      0.30435584	      1.24711670	      0.04459672	     28.71377902	      0.00547139	      2.27281290	     57.71868685	      1.00738113	      4.59950491	    -21.56023875	     -7.49999987	     23.35577299	     -1.74223501	     -2.79703073	     47.55200072	      0.82993898	      3.04670808	    -19.55957316	     -7.49999987	      1.02779040	      1.17144249	     -0.81102235	     35.39800271	    -34.94046011	     22.08256760	    100.01903032	     81.00283092	     46.88501240	    -39.66080732	     19.31568744	     86.43589444	     77.24946657
      3.63333330	    -12.91385844	      1.19576645	     -5.18285169	      0.31807763	      1.24861858	      0.04442907	     31.21501623	     -0.25525834	      1.52514422	     60.99731992	      1.06460407	      5.51158786	    -22.50783732	     -7.49999987	     25.00745395	     -1.63644126	     -2.14686944	     48.60949639	      0.84839576	      5.86463848	    -16.77058471	     -7.49999987	     -0.02164517	      0.84079975	     -1.54637734	     32.53026143	    -38.27084863	     22.39341104	    100.58018599	     80.57885124	     44.25145252	    -42.75413781	     18.73906881	     84.17720478	     77.37331457
      3.65000000	    -12.79492028	      1.22725921	     -5.34020280	      0.33406031	      1.24396405	      0.04411651	     33.69092998	     -0.49086248	      0.85888027	     62.37325903	      1.08861874	      5.91148630	    -23.46370582	     -7.49999987	     27.22078617	     -1.68734411	     -1.37372423	     48.86908852	      0.85292650	      8.80238855	    -13.62651434	     -7.49999987	     -0.71951263	      0.52426277	     -2.05836222	     29.02712244	    -42.70368878	     22.29685893	    101.22207571	     80.24512262	     41.16391843	    -45.90301999	     18.10654641	     81.97076266	     77.66341612
